<?xml version="1.0" encoding="UTF-8"?>
<svg id="Capa_4" data-name="Capa 4" xmlns="http://www.w3.org/2000/svg" version="1.1" viewBox="0 0 30 30">
  <defs>
    <style>
      .cls-1 {
        fill: #fff;
        stroke-width: 0px;
      }
    </style>
  </defs>
  <g>
    <path class="cls-1" d="M11.2,25.2h-.5v-4h2.4v.4h-1.9v1.3h1.6v.4h-1.6v1.9Z"/>
    <path class="cls-1" d="M16.2,25.2h-.5l-.4-1.2h-1.5l-.4,1.2h-.4l1.3-4h.6l1.3,4ZM15.1,23.7l-.6-1.9-.6,1.9h1.2Z"/>
    <path class="cls-1" d="M17.9,25.3c-.5,0-.9-.2-1.2-.6-.3-.4-.4-.9-.4-1.5s.2-1.1.5-1.5c.3-.4.7-.6,1.2-.6s.9.2,1.2.6c.3.4.5.9.5,1.5s-.1,1-.3,1.3c-.2.4-.5.6-.9.7h0c0,.3.2.5.5.5s.3,0,.5,0v.4c-.1,0-.3,0-.4,0-.3,0-.5,0-.7-.2-.2-.1-.3-.4-.3-.7ZM17.9,24.9c.3,0,.6-.2.8-.5.2-.3.3-.7.3-1.2s-.1-.9-.3-1.2c-.2-.3-.5-.4-.8-.4s-.6.2-.8.5c-.2.3-.3.7-.3,1.2s.1.9.3,1.2.5.5.8.5Z"/>
  </g>
  <path class="cls-1" d="M16.4,15c.2,0,.3,0,.5-.2s.2-.3.2-.5,0-.3-.2-.5-.3-.2-.5-.2-.3,0-.5.2c-.1.1-.2.3-.2.5s0,.3.2.5c.1.1.3.2.5.2ZM16,12.3h.7c0-.4.1-.7.2-.9s.4-.5.8-.9c.4-.4.7-.7.9-1s.3-.6.3-1c0-.7-.2-1.2-.7-1.6s-1.1-.7-1.8-.7-1,.1-1.4.4-.7.7-1,1.1l.7.3c.2-.4.4-.7.7-.9s.6-.3,1-.3.9.2,1.3.5.5.7.5,1.2,0,.5-.2.8-.4.5-.8.9-.7.7-.8,1-.2.7-.2,1.2ZM11.2,17.3c-.4,0-.8-.1-1.1-.4s-.4-.6-.4-1.1V5.4c0-.4.1-.8.4-1.1s.6-.4,1.1-.4h10.4c.4,0,.8.1,1.1.4s.4.6.4,1.1v10.4c0,.4-.1.8-.4,1.1s-.6.4-1.1.4h-10.4ZM11.2,16.6h10.4c.2,0,.4,0,.6-.3s.3-.4.3-.6V5.4c0-.2,0-.4-.3-.6s-.4-.3-.6-.3h-10.4c-.2,0-.4,0-.6.3s-.3.4-.3.6v10.4c0,.2,0,.4.3.6s.4.3.6.3ZM8.5,20c-.4,0-.8-.1-1.1-.4s-.4-.6-.4-1.1V7.4h.7v11.1c0,.2,0,.4.3.6s.4.3.6.3h11.1v.7h-11.1ZM10.4,4.6v12V4.6Z"/>
</svg>