<?xml version="1.0" encoding="UTF-8"?>
<svg id="Capa_4" data-name="Capa 4" xmlns="http://www.w3.org/2000/svg" version="1.1" viewBox="0 0 30 30">
  <defs>
    <style>
      .cls-1 {
        fill: #fff;
        stroke-width: 0px;
      }
    </style>
  </defs>
  <g>
    <path class="cls-1" d="M11.2,28.8h-.5v-4h2.4v.4h-1.9v1.3h1.6v.4h-1.6s0,1.9,0,1.9Z"/>
    <path class="cls-1" d="M16.2,28.8h-.5l-.4-1.2h-1.5l-.4,1.2h-.4l1.3-4h.6s1.3,4,1.3,4ZM15.1,27.3l-.6-1.9-.6,1.9h1.2Z"/>
    <path class="cls-1" d="M17.9,28.9c-.5,0-.9-.2-1.2-.6-.3-.4-.4-.9-.4-1.5s.2-1.1.5-1.5.7-.6,1.2-.6.9.2,1.2.6c.3.4.5.9.5,1.5s-.1,1-.3,1.3c-.2.4-.5.6-.9.7h0c0,.3.2.5.5.5h.5v.4h-.4c-.3,0-.5,0-.7-.2-.2-.1-.3-.4-.3-.7h-.2ZM17.9,28.5c.3,0,.6-.2.8-.5.2-.3.3-.7.3-1.2s-.1-.9-.3-1.2c-.2-.3-.5-.4-.8-.4s-.6.2-.8.5c-.2.3-.3.7-.3,1.2s.1.9.3,1.2.5.5.8.5h0Z"/>
  </g>
  <path class="cls-1" d="M17.1,15c.3,0,.5-.1.7-.3s.3-.5.3-.7-.1-.5-.3-.7-.5-.3-.7-.3-.5.1-.7.3-.3.5-.3.7.1.5.3.7.5.3.7.3ZM16.4,11.8h1.5c0-.5,0-.8.2-1.1s.3-.5.7-.9c.4-.4.8-.9,1-1.2s.3-.7.3-1.1c0-.8-.3-1.4-.8-1.8s-1.2-.7-2.1-.7-1.3.2-1.8.6-.9.9-1.1,1.5l1.4.6c.2-.4.4-.7.6-.9s.6-.3.9-.3.7,0,1,.3.4.5.4.9,0,.5-.2.7-.4.5-.7.8c-.6.5-.9.9-1,1.1s-.2.8-.2,1.6h0ZM11.1,18c-.6,0-1-.2-1.4-.6s-.6-.9-.6-1.4V4c0-.6.2-1,.6-1.4s.9-.6,1.4-.6h12c.6,0,1,.2,1.4.6s.6.9.6,1.4v12c0,.6-.2,1-.6,1.4s-.9.6-1.4.6h-12ZM11.1,16h12V4h-12v12ZM7.1,22c-.6,0-1-.2-1.4-.6s-.6-.9-.6-1.4V6h2v14h14v2H7.1ZM11.1,4v12V4Z"/>
</svg>