<?xml version="1.0" encoding="UTF-8"?>
<svg id="Capa_3" data-name="Capa 3" xmlns="http://www.w3.org/2000/svg" version="1.1" viewBox="0 0 30 30">
  <defs>
    <style>
      .cls-1 {
        fill: #fff;
        stroke-width: 0px;
      }
    </style>
  </defs>
  <g>
    <path class="cls-1" d="M10.5,29.2h-.5v-1.9h-1.9v1.9h-.5v-4h.5v1.7h1.9v-1.7h.5v4Z"/>
    <path class="cls-1" d="M12.8,29.3c-.5,0-.9-.2-1.2-.6-.3-.4-.4-.9-.4-1.5s.2-1.1.5-1.5c.3-.4.7-.6,1.2-.6s.9.2,1.2.6.4.9.4,1.5-.1,1.1-.4,1.5c-.3.4-.7.6-1.2.6ZM12.9,28.9c.3,0,.6-.2.8-.5.2-.3.3-.7.3-1.2s-.1-.9-.3-1.2c-.2-.3-.5-.4-.8-.4s-.6.2-.8.5c-.2.3-.3.7-.3,1.2s.1.9.3,1.2c.2.3.5.5.8.5Z"/>
    <path class="cls-1" d="M19.1,29.2h-.5v-3.5l-1.3,3.5h-.3l-1.3-3.5v3.5h-.4v-4h.7l1.2,3.2,1.2-3.2h.7v4Z"/>
    <path class="cls-1" d="M22.7,28.8v.4h-2.6v-4h2.5v.4h-2v1.3h1.6v.4h-1.6v1.4h2.1Z"/>
  </g>
  <path class="cls-1" d="M8.7,19.2h4.1v-6.2h4.4v6.2h4.1v-9.5l-6.3-4.8-6.3,4.8v9.5ZM7.9,19.9v-10.6l7.1-5.4,7.1,5.4v10.6h-5.6v-6.2h-3v6.2h-5.6Z"/>
</svg>