<?xml version="1.0" encoding="UTF-8"?>
<svg xmlns="http://www.w3.org/2000/svg" version="1.1" viewBox="0 0 30 30">
  <defs>
    <style>
      .cls-1 {
        fill: red;
      }

      .cls-1, .cls-2 {
        stroke-width: 0px;
      }

      .cls-2 {
        fill: #fff;
      }

      .cls-3 {
        display: none;
      }
    </style>
  </defs>
  <g id="Capa_1" data-name="Capa 1" class="cls-3">
    <path class="cls-1" d="M14.8,17.2v-5.2l-4.5-2.6v5.2c0,.1,0,.1.2.2l4.2,2.5h.1ZM15.2,17.2l4.2-2.5s.2-.1.2-.2v-5.2l-4.5,2.6v5.2h0ZM15,11.7l4.5-2.6-4.2-2.4h-.6l-4.2,2.4,4.5,2.6ZM10.3,15.2c-.2,0-.3-.2-.4-.4s0-.3,0-.5v-4.8c0-.2,0-.4,0-.5s.2-.3.4-.4l4.2-2.4c.2,0,.3,0,.5,0s.4,0,.5,0l4.2,2.4c.2,0,.3.2.4.4s.1.3.1.5v4.8c0,.2,0,.4-.1.5s-.2.3-.4.4l-4.2,2.4c-.2,0-.3.1-.5.1s-.4,0-.5-.1c0,0-4.2-2.4-4.2-2.4Z"/>
    <g>
      <path class="cls-1" d="M18.1,4.3h3.9c.3,0,.6.3.6.6v4.5h.4v-4.5c0-.5-.4-1-1-1h-3.9v.4Z"/>
      <path class="cls-1" d="M7.3,9.5v-4.6c0-.3.3-.6.6-.6h3.9v-.4h-3.9c-.5,0-1,.4-1,1v4.5h.4Z"/>
      <path class="cls-1" d="M11.9,19.5h-3.9c-.3,0-.6-.3-.6-.6v-3.2h-.4v3.2c0,.5.4,1,1,1h3.9v-.4Z"/>
      <path class="cls-1" d="M22.7,15.8v3.2c0,.3-.3.6-.6.6h-3.9v.4h3.9c.5,0,1-.4,1-1v-3.2h-.4Z"/>
    </g>
    <g>
      <path class="cls-1" d="M14.9,25.2h-.5l-.7-1.7h-1.1v1.7h-.5v-4h1.6c.4,0,.7.1,1,.4s.3.5.3.8,0,.4-.2.6-.3.3-.6.4l.8,1.9h-.1ZM12.5,23h1c.3,0,.5,0,.6-.2.1-.1.2-.3.2-.5s0-.4-.2-.5-.3-.2-.5-.2h-1.1v1.4Z"/>
      <path class="cls-1" d="M18.4,25.2h-.5l-.4-1.2h-1.5l-.4,1.2h-.4l1.3-4h.6s1.3,4,1.3,4ZM17.4,23.6l-.6-1.9-.6,1.9h1.2Z"/>
    </g>
  </g>
  <g id="Capa_2" data-name="Capa 2">
    <path class="cls-2" d="M14.7,15.8h.6v-4.8h-.6v4.8ZM15,9.9c.1,0,.2,0,.3-.1s.1-.2.1-.3,0-.2-.1-.3-.2-.1-.3-.1-.2,0-.3.1-.1.2-.1.3,0,.2.1.3.2.1.3.1ZM15,19.8c-1.1,0-2.1-.2-3.1-.6-1-.4-1.8-1-2.5-1.7-.7-.7-1.3-1.5-1.7-2.5-.4-1-.6-2-.6-3.1s.2-2.1.6-3.1c.4-1,1-1.8,1.7-2.5.7-.7,1.5-1.3,2.5-1.7s2-.6,3.1-.6,2.1.2,3.1.6c1,.4,1.8,1,2.5,1.7.7.7,1.3,1.5,1.7,2.5.4,1,.6,2,.6,3.1s-.2,2.1-.6,3.1c-.4,1-1,1.8-1.7,2.5-.7.7-1.5,1.3-2.5,1.7-1,.4-2,.6-3.1.6ZM15,19.1c2,0,3.7-.7,5.1-2.1s2.1-3.1,2.1-5.1-.7-3.7-2.1-5.1-3.1-2.1-5.1-2.1-3.7.7-5.1,2.1-2.1,3.1-2.1,5.1.7,3.7,2.1,5.1,3.1,2.1,5.1,2.1Z"/>
    <g>
      <path class="cls-2" d="M7.5,23h1.2v-1.2h.4v1.2h1.2v.4h-1.2v1.2h-.4v-1.2h-1.2v-.4Z"/>
      <path class="cls-2" d="M11.7,25.2h-.5v-4h.5v4Z"/>
      <path class="cls-2" d="M15.6,25.2h-.5l-2.1-3.5v.3c0,0,0,.2,0,.3v3h-.4v-4h.6l1.9,3.3v-.3c0-.1,0-.2,0-.3v-2.7h.4v4Z"/>
      <path class="cls-2" d="M17.1,25.2h-.5v-4h2.4v.4h-1.9v1.3h1.6v.4h-1.6v1.9Z"/>
      <path class="cls-2" d="M20.9,25.3c-.5,0-.9-.2-1.2-.6s-.4-.9-.4-1.5.2-1.1.5-1.5c.3-.4.7-.6,1.2-.6s.9.2,1.2.6.4.9.4,1.5-.1,1.1-.4,1.5c-.3.4-.7.6-1.2.6ZM21,24.9c.3,0,.6-.2.8-.5.2-.3.3-.7.3-1.2s-.1-.9-.3-1.2c-.2-.3-.5-.4-.8-.4s-.6.2-.8.5c-.2.3-.3.7-.3,1.2s.1.9.3,1.2.5.5.8.5Z"/>
    </g>
  </g>
  <g id="Capa_3" data-name="Capa 3" class="cls-3">
    <g>
      <path class="cls-2" d="M8.2,25.2h-.5v-4h.5v4Z"/>
      <path class="cls-2" d="M12.1,25.2h-.5l-2.1-3.5v.3c0,0,0,.2,0,.3v3h-.4v-4h.6l1.9,3.3v-.3c0-.1,0-.2,0-.3v-2.7h.4v4Z"/>
      <path class="cls-2" d="M13.6,25.2h-.5v-4h.5v4Z"/>
      <path class="cls-2" d="M17,23.9h.5c-.2,1-.7,1.4-1.5,1.4s-.9-.2-1.2-.6c-.3-.4-.4-.9-.4-1.5s.2-1.1.5-1.5c.3-.4.7-.6,1.2-.6.8,0,1.2.4,1.4,1.3h-.5c-.2-.5-.5-.9-1-.9s-.6.1-.8.4c-.2.3-.3.7-.3,1.2s0,.9.3,1.2c.2.3.5.4.8.4.5,0,.8-.3,1-1Z"/>
      <path class="cls-2" d="M18.6,25.2h-.5v-4h.5v4Z"/>
      <path class="cls-2" d="M20.9,25.3c-.5,0-.9-.2-1.2-.6s-.4-.9-.4-1.5.2-1.1.5-1.5c.3-.4.7-.6,1.2-.6s.9.2,1.2.6.4.9.4,1.5-.1,1.1-.4,1.5c-.3.4-.7.6-1.2.6ZM21,24.9c.3,0,.6-.2.8-.5.2-.3.3-.7.3-1.2s-.1-.9-.3-1.2c-.2-.3-.5-.4-.8-.4s-.6.2-.8.5c-.2.3-.3.7-.3,1.2s.1.9.3,1.2.5.5.8.5Z"/>
    </g>
    <path class="cls-2" d="M8.7,19.2h4.1v-6.2h4.4v6.2h4.1v-9.5l-6.3-4.8-6.3,4.8v9.5ZM7.9,19.9v-10.6l7.1-5.4,7.1,5.4v10.6h-5.6v-6.2h-3v6.2h-5.6Z"/>
  </g>
  <g id="Capa_4" data-name="Capa 4" class="cls-3">
    <g>
      <path class="cls-2" d="M11.2,25.2h-.5v-4h2.4v.4h-1.9v1.3h1.6v.4h-1.6v1.9Z"/>
      <path class="cls-2" d="M16.2,25.2h-.5l-.4-1.2h-1.5l-.4,1.2h-.4l1.3-4h.6l1.3,4ZM15.1,23.7l-.6-1.9-.6,1.9h1.2Z"/>
      <path class="cls-2" d="M17.9,25.3c-.5,0-.9-.2-1.2-.6-.3-.4-.4-.9-.4-1.5s.2-1.1.5-1.5c.3-.4.7-.6,1.2-.6s.9.2,1.2.6c.3.4.5.9.5,1.5s-.1,1-.3,1.3c-.2.4-.5.6-.9.7h0c0,.3.2.5.5.5s.3,0,.5,0v.4c-.1,0-.3,0-.4,0-.3,0-.5,0-.7-.2-.2-.1-.3-.4-.3-.7ZM17.9,24.9c.3,0,.6-.2.8-.5.2-.3.3-.7.3-1.2s-.1-.9-.3-1.2c-.2-.3-.5-.4-.8-.4s-.6.2-.8.5c-.2.3-.3.7-.3,1.2s.1.9.3,1.2.5.5.8.5Z"/>
    </g>
    <path class="cls-2" d="M16.4,15c.2,0,.3,0,.5-.2s.2-.3.2-.5,0-.3-.2-.5-.3-.2-.5-.2-.3,0-.5.2c-.1.1-.2.3-.2.5s0,.3.2.5c.1.1.3.2.5.2ZM16,12.3h.7c0-.4.1-.7.2-.9s.4-.5.8-.9c.4-.4.7-.7.9-1s.3-.6.3-1c0-.7-.2-1.2-.7-1.6s-1.1-.7-1.8-.7-1,.1-1.4.4-.7.7-1,1.1l.7.3c.2-.4.4-.7.7-.9s.6-.3,1-.3.9.2,1.3.5.5.7.5,1.2,0,.5-.2.8-.4.5-.8.9-.7.7-.8,1-.2.7-.2,1.2ZM11.2,17.3c-.4,0-.8-.1-1.1-.4s-.4-.6-.4-1.1V5.4c0-.4.1-.8.4-1.1s.6-.4,1.1-.4h10.4c.4,0,.8.1,1.1.4s.4.6.4,1.1v10.4c0,.4-.1.8-.4,1.1s-.6.4-1.1.4h-10.4ZM11.2,16.6h10.4c.2,0,.4,0,.6-.3s.3-.4.3-.6V5.4c0-.2,0-.4-.3-.6s-.4-.3-.6-.3h-10.4c-.2,0-.4,0-.6.3s-.3.4-.3.6v10.4c0,.2,0,.4.3.6s.4.3.6.3ZM8.5,20c-.4,0-.8-.1-1.1-.4s-.4-.6-.4-1.1V7.4h.7v11.1c0,.2,0,.4.3.6s.4.3.6.3h11.1v.7h-11.1ZM10.4,4.6v12V4.6Z"/>
  </g>
</svg>