<?xml version="1.0" encoding="UTF-8"?>
<svg id="Capa_2" data-name="Capa 2" xmlns="http://www.w3.org/2000/svg" version="1.1" viewBox="0 0 30 30">
  <defs>
    <style>
      .cls-1 {
        fill: #fff;
        stroke-width: 0px;
      }
    </style>
  </defs>
  <path class="cls-1" d="M14.7,15.8h.6v-4.8h-.6v4.8ZM15,9.9c.1,0,.2,0,.3-.1s.1-.2.1-.3,0-.2-.1-.3-.2-.1-.3-.1-.2,0-.3.1-.1.2-.1.3,0,.2.1.3.2.1.3.1ZM15,19.8c-1.1,0-2.1-.2-3.1-.6-1-.4-1.8-1-2.5-1.7-.7-.7-1.3-1.5-1.7-2.5-.4-1-.6-2-.6-3.1s.2-2.1.6-3.1c.4-1,1-1.8,1.7-2.5.7-.7,1.5-1.3,2.5-1.7s2-.6,3.1-.6,2.1.2,3.1.6c1,.4,1.8,1,2.5,1.7.7.7,1.3,1.5,1.7,2.5.4,1,.6,2,.6,3.1s-.2,2.1-.6,3.1c-.4,1-1,1.8-1.7,2.5-.7.7-1.5,1.3-2.5,1.7-1,.4-2,.6-3.1.6ZM15,19.1c2,0,3.7-.7,5.1-2.1s2.1-3.1,2.1-5.1-.7-3.7-2.1-5.1-3.1-2.1-5.1-2.1-3.7.7-5.1,2.1-2.1,3.1-2.1,5.1.7,3.7,2.1,5.1,3.1,2.1,5.1,2.1Z"/>
  <g>
    <path class="cls-1" d="M7.5,27h1.2v-1.2h.4v1.2h1.2v.4h-1.2v1.2h-.4v-1.2h-1.2v-.4Z"/>
    <path class="cls-1" d="M11.7,29.2h-.5v-4h.5v4Z"/>
    <path class="cls-1" d="M15.6,29.2h-.5l-2.1-3.5v.3c0,0,0,.2,0,.3v3h-.4v-4h.6l1.9,3.3v-.3c0-.1,0-.2,0-.3v-2.7h.4v4Z"/>
    <path class="cls-1" d="M17.1,29.2h-.5v-4h2.4v.4h-1.9v1.3h1.6v.4h-1.6v1.9Z"/>
    <path class="cls-1" d="M20.9,29.3c-.5,0-.9-.2-1.2-.6s-.4-.9-.4-1.5.2-1.1.5-1.5c.3-.4.7-.6,1.2-.6s.9.2,1.2.6.4.9.4,1.5-.1,1.1-.4,1.5c-.3.4-.7.6-1.2.6ZM21,28.9c.3,0,.6-.2.8-.5.2-.3.3-.7.3-1.2s-.1-.9-.3-1.2c-.2-.3-.5-.4-.8-.4s-.6.2-.8.5c-.2.3-.3.7-.3,1.2s.1.9.3,1.2.5.5.8.5Z"/>
  </g>
</svg>