<?xml version="1.0" encoding="UTF-8"?>
<svg id="Capa_3" data-name="Capa 3" xmlns="http://www.w3.org/2000/svg" version="1.1" viewBox="0 0 30 30">
  <defs>
    <style>
      .cls-1 {
        fill: #fff;
        stroke-width: 0px;
      }
    </style>
  </defs>
  <g>
    <path class="cls-1" d="M8.2,25.2h-.5v-4h.5v4Z"/>
    <path class="cls-1" d="M12.1,25.2h-.5l-2.1-3.5v.3c0,0,0,.2,0,.3v3h-.4v-4h.6l1.9,3.3v-.3c0-.1,0-.2,0-.3v-2.7h.4v4Z"/>
    <path class="cls-1" d="M13.6,25.2h-.5v-4h.5v4Z"/>
    <path class="cls-1" d="M17,23.9h.5c-.2,1-.7,1.4-1.5,1.4s-.9-.2-1.2-.6c-.3-.4-.4-.9-.4-1.5s.2-1.1.5-1.5c.3-.4.7-.6,1.2-.6.8,0,1.2.4,1.4,1.3h-.5c-.2-.5-.5-.9-1-.9s-.6.1-.8.4c-.2.3-.3.7-.3,1.2s0,.9.3,1.2c.2.3.5.4.8.4.5,0,.8-.3,1-1Z"/>
    <path class="cls-1" d="M18.6,25.2h-.5v-4h.5v4Z"/>
    <path class="cls-1" d="M20.9,25.3c-.5,0-.9-.2-1.2-.6s-.4-.9-.4-1.5.2-1.1.5-1.5c.3-.4.7-.6,1.2-.6s.9.2,1.2.6.4.9.4,1.5-.1,1.1-.4,1.5c-.3.4-.7.6-1.2.6ZM21,24.9c.3,0,.6-.2.8-.5.2-.3.3-.7.3-1.2s-.1-.9-.3-1.2c-.2-.3-.5-.4-.8-.4s-.6.2-.8.5c-.2.3-.3.7-.3,1.2s.1.9.3,1.2.5.5.8.5Z"/>
  </g>
  <path class="cls-1" d="M8.7,19.2h4.1v-6.2h4.4v6.2h4.1v-9.5l-6.3-4.8-6.3,4.8v9.5ZM7.9,19.9v-10.6l7.1-5.4,7.1,5.4v10.6h-5.6v-6.2h-3v6.2h-5.6Z"/>
</svg>