<?xml version="1.0" encoding="UTF-8"?>
<svg id="Capa_1" data-name="Capa 1" xmlns="http://www.w3.org/2000/svg" version="1.1" viewBox="0 0 30 30">
  <defs>
    <style>
      .cls-1 {
        fill: #fff;
        stroke-width: 0px;
      }
    </style>
  </defs>
  <g>
    <path class="cls-1" d="M14.7,29.2h-.5l-.4-1.2h-1.5l-.4,1.2h-.4l1.3-4h.6s1.3,4,1.3,4ZM13.7,27.7l-.6-1.9-.6,1.9h1.2Z"/>
    <path class="cls-1" d="M18.1,29.2h-.5l-.7-1.7h-1.1v1.7h-.5v-4h1.6c.4,0,.7.1,1,.4s.3.5.3.8-.2.9-.8,1l.8,1.8h0ZM15.7,27.1h1c.3,0,.5,0,.6-.2s.2-.3.2-.5,0-.4-.2-.5-.3-.2-.5-.2h-1.1s0,1.4,0,1.4Z"/>
  </g>
  <path class="cls-1" d="M14.2,18l-4-2.3c-.2-.2-.5-.3-.6-.6s-.2-.5-.2-.8v-4.7c0-.3,0-.6.2-.8s.3-.4.6-.6l4-2.3c.2-.2.6-.2.8-.2s.6,0,.8.2l4,2.3c.2.2.5.3.6.6,0,.2.2.5.2.8v4.7c0,.3,0,.6-.2.8s-.3.4-.6.6l-4,2.3c-.2.2-.6.2-.8.2s-.6,0-.8-.2ZM14.2,16.1v-3.7l-3.2-1.9v3.7s3.2,1.9,3.2,1.9ZM15.8,16.1l3.2-1.9v-3.7l-3.2,1.9v3.7ZM6.9,7.9v-2.4c0-.5.2-.8.5-1.1s.7-.5,1.1-.5h2.4v1.6h-2.4v2.4h-1.6ZM11,20h-2.4c-.5,0-.8-.2-1.1-.5s-.5-.7-.5-1.1v-2.4h1.6v2.4h2.4v1.6ZM19.1,20v-1.6h2.4v-2.4h1.6v2.4c0,.5-.2.8-.5,1.1s-.7.5-1.1.5h-2.4ZM21.5,7.9v-2.4h-2.4v-1.6h2.4c.5,0,.8.2,1.1.5s.5.7.5,1.1v2.4h-1.6ZM15,11l3.2-1.9-3.2-1.9-3.2,1.9,3.2,1.9Z"/>
</svg>