<?xml version="1.0" encoding="UTF-8"?>
<svg id="Capa_1" data-name="Capa 1" xmlns="http://www.w3.org/2000/svg" version="1.1" viewBox="0 0 30 30">
  <defs>
    <style>
      .cls-1 {
        fill: #fff;
        stroke-width: 0px;
      }
    </style>
  </defs>
  <path class="cls-1" d="M14.8,17.2v-5.2l-4.5-2.6v5.2c0,.1,0,.1.2.2l4.2,2.5h.1ZM15.2,17.2l4.2-2.5s.2-.1.2-.2v-5.2l-4.5,2.6v5.2h0ZM15,11.7l4.5-2.6-4.2-2.4h-.6l-4.2,2.4,4.5,2.6ZM10.3,15.2c-.2,0-.3-.2-.4-.4s0-.3,0-.5v-4.8c0-.2,0-.4,0-.5s.2-.3.4-.4l4.2-2.4c.2,0,.3,0,.5,0s.4,0,.5,0l4.2,2.4c.2,0,.3.2.4.4s.1.3.1.5v4.8c0,.2,0,.4-.1.5s-.2.3-.4.4l-4.2,2.4c-.2,0-.3.1-.5.1s-.4,0-.5-.1l-4.2-2.4Z"/>
  <g>
    <path class="cls-1" d="M18.1,4.3h3.9c.3,0,.6.3.6.6v4.5h.4v-4.5c0-.5-.4-1-1-1h-3.9v.4Z"/>
    <path class="cls-1" d="M7.3,9.5v-4.6c0-.3.3-.6.6-.6h3.9v-.4h-3.9c-.5,0-1,.4-1,1v4.5h.4Z"/>
    <path class="cls-1" d="M11.9,19.5h-3.9c-.3,0-.6-.3-.6-.6v-3.2h-.4v3.2c0,.5.4,1,1,1h3.9v-.4Z"/>
    <path class="cls-1" d="M22.7,15.8v3.2c0,.3-.3.6-.6.6h-3.9v.4h3.9c.5,0,1-.4,1-1v-3.2h-.4Z"/>
  </g>
  <g>
    <path class="cls-1" d="M14.7,29.2h-.5l-.4-1.2h-1.5l-.4,1.2h-.4l1.3-4h.6l1.3,4ZM13.7,27.7l-.6-1.9-.6,1.9h1.2Z"/>
    <path class="cls-1" d="M18.1,29.2h-.5l-.7-1.7h-1.1v1.7h-.5v-4h1.6c.4,0,.7.1,1,.4.2.2.3.5.3.8s0,.4-.2.6-.3.3-.6.4l.8,1.9ZM15.7,27.1h1c.3,0,.5,0,.6-.2.1-.1.2-.3.2-.5s0-.4-.2-.5c-.1-.1-.3-.2-.5-.2h-1.1v1.4Z"/>
  </g>
</svg>