<?xml version="1.0" encoding="UTF-8"?>
<svg id="Capa_3" data-name="Capa 3" xmlns="http://www.w3.org/2000/svg" version="1.1" viewBox="0 0 30 30">
  <defs>
    <style>
      .cls-1 {
        fill: #fff;
        stroke-width: 0px;
      }
    </style>
  </defs>
  <g>
    <path class="cls-1" d="M13.3,29.2c-.4,0-.7,0-1-.2-.3-.2-.5-.4-.6-.7s-.2-.7-.2-1.1,0-.8.2-1.1.4-.5.6-.7c.3-.2.6-.2,1-.2s.5,0,.7.1c.2,0,.4.2.6.4l-.2.4c-.2-.2-.4-.3-.5-.3s-.4-.1-.6-.1c-.4,0-.8.1-1,.4-.2.3-.3.7-.3,1.2s.1.9.3,1.2.6.4,1,.4.4,0,.6-.1.3-.2.5-.3l.2.4c-.2.2-.4.3-.6.4-.2,0-.5.1-.7.1Z"/>
    <path class="cls-1" d="M17.3,29.2c-.4,0-.7,0-1-.2s-.5-.4-.6-.7-.2-.7-.2-1.1,0-.8.2-1.1.4-.5.6-.7.6-.2,1-.2.5,0,.7.1c.2,0,.4.2.6.4l-.2.4c-.2-.2-.4-.3-.5-.3s-.4-.1-.6-.1c-.4,0-.8.1-1,.4-.2.3-.3.7-.3,1.2s.1.9.3,1.2.6.4,1,.4.4,0,.6-.1.3-.2.5-.3l.2.4c-.2.2-.4.3-.6.4-.2,0-.5.1-.7.1Z"/>
  </g>
  <path class="cls-1" d="M9,15.9h8v-2h-8v2ZM19,15.9h2v-2h-2v2ZM9,11.9h2v-2h-2v2ZM13,11.9h8v-2h-8v2ZM7,19.9c-.6,0-1-.2-1.4-.6s-.6-.9-.6-1.4V5.9c0-.6.2-1,.6-1.4s.9-.6,1.4-.6h16c.6,0,1,.2,1.4.6s.6.9.6,1.4v12c0,.6-.2,1-.6,1.4s-.9.6-1.4.6H7ZM7,17.9h16V5.9H7v12ZM7,17.9V5.9v12Z"/>
</svg>