<?xml version="1.0" encoding="UTF-8"?>
<svg id="Capa_3" data-name="Capa 3" xmlns="http://www.w3.org/2000/svg" version="1.1" viewBox="0 0 30 30">
  <defs>
    <style>
      .cls-1 {
        fill: #fff;
        stroke-width: 0px;
      }
    </style>
  </defs>
  <path class="cls-1" d="M8.7,15.7h9.3v-.8h-9.3v.8ZM20.4,15.7h.8v-.8h-.8v.8ZM8.7,11.6h.8v-.8h-.8v.8ZM12,11.6h9.3v-.8h-9.3v.8ZM6.4,19.9c-.5,0-.9-.2-1.3-.5s-.5-.8-.5-1.3V5.6c0-.5.2-.9.5-1.3s.8-.5,1.3-.5h17.2c.5,0,.9.2,1.3.5s.5.8.5,1.3v12.4c0,.5-.2.9-.5,1.3s-.8.5-1.3.5H6.4ZM6.4,19h17.2c.2,0,.5,0,.7-.3.2-.2.3-.4.3-.7V5.6c0-.2,0-.5-.3-.7s-.4-.3-.7-.3H6.4c-.2,0-.5,0-.7.3s-.3.4-.3.7v12.4c0,.2,0,.5.3.7.2.2.4.3.7.3ZM5.4,19V4.7v14.3Z"/>
  <g>
    <path class="cls-1" d="M13.3,29.2c-.4,0-.7,0-1-.2-.3-.2-.5-.4-.6-.7s-.2-.7-.2-1.1,0-.8.2-1.1.4-.5.6-.7c.3-.2.6-.2,1-.2s.5,0,.7.1c.2,0,.4.2.6.4l-.2.4c-.2-.2-.4-.3-.5-.3s-.4-.1-.6-.1c-.4,0-.8.1-1,.4-.2.3-.3.7-.3,1.2s.1.9.3,1.2.6.4,1,.4.4,0,.6-.1.3-.2.5-.3l.2.4c-.2.2-.4.3-.6.4-.2,0-.5.1-.7.1Z"/>
    <path class="cls-1" d="M17.3,29.2c-.4,0-.7,0-1-.2s-.5-.4-.6-.7-.2-.7-.2-1.1,0-.8.2-1.1.4-.5.6-.7.6-.2,1-.2.5,0,.7.1c.2,0,.4.2.6.4l-.2.4c-.2-.2-.4-.3-.5-.3s-.4-.1-.6-.1c-.4,0-.8.1-1,.4-.2.3-.3.7-.3,1.2s.1.9.3,1.2.6.4,1,.4.4,0,.6-.1.3-.2.5-.3l.2.4c-.2.2-.4.3-.6.4-.2,0-.5.1-.7.1Z"/>
  </g>
</svg>