<?xml version="1.0" encoding="UTF-8"?>
<svg id="Capa_3" data-name="Capa 3" xmlns="http://www.w3.org/2000/svg" version="1.1" viewBox="0 0 30 30">
  <defs>
    <style>
      .cls-1 {
        fill: #fff;
        stroke-width: 0px;
      }
    </style>
  </defs>
  <g>
    <path class="cls-1" d="M10.5,29.2h-.5v-1.9h-1.9v1.9h-.5v-4h.5v1.7h1.9v-1.7h.5v4Z"/>
    <path class="cls-1" d="M12.8,29.3c-.5,0-.9-.2-1.2-.6s-.4-.9-.4-1.5.2-1.1.5-1.5.7-.6,1.2-.6.9.2,1.2.6.4.9.4,1.5-.1,1.1-.4,1.5c-.3.4-.7.6-1.2.6h-.1ZM12.9,28.9c.3,0,.6-.2.8-.5s.3-.7.3-1.2-.1-.9-.3-1.2c-.2-.3-.5-.4-.8-.4s-.6.2-.8.5-.3.7-.3,1.2.1.9.3,1.2c.2.3.5.5.8.5h0Z"/>
    <path class="cls-1" d="M19.1,29.2h-.5v-3.5l-1.3,3.5h-.3l-1.3-3.5v3.5h-.4v-4h.7l1.2,3.2,1.2-3.2h.7s0,4,0,4Z"/>
    <path class="cls-1" d="M22.7,28.8v.4h-2.6v-4h2.5v.4h-2v1.3h1.6v.4h-1.6v1.4h2.1Z"/>
  </g>
  <path class="cls-1" d="M9,18.9h3v-6h6v6h3v-9l-6-4.5-6,4.5s0,9,0,9ZM7,20.9v-12l8-6,8,6v12h-7v-6h-2v6h-7Z"/>
</svg>