<?xml version="1.0" encoding="UTF-8"?>
<svg id="Capa_2" data-name="Capa 2" xmlns="http://www.w3.org/2000/svg" version="1.1" viewBox="0 0 30 30">
  <defs>
    <style>
      .cls-1 {
        fill: #fff;
        stroke-width: 0px;
      }
    </style>
  </defs>
  <g>
    <path class="cls-1" d="M7.5,27h1.2v-1.2h.4v1.2h1.2v.4h-1.2v1.2h-.4v-1.2h-1.2v-.4Z"/>
    <path class="cls-1" d="M11.7,29.2h-.5v-4h.5v4Z"/>
    <path class="cls-1" d="M15.6,29.2h-.5l-2.1-3.5v3.6h-.4v-4h.6l1.9,3.3v-3.3h.4v4h.1Z"/>
    <path class="cls-1" d="M17.1,29.2h-.5v-4h2.4v.4h-1.9v1.3h1.6v.4h-1.6v1.9Z"/>
    <path class="cls-1" d="M20.9,29.3c-.5,0-.9-.2-1.2-.6s-.4-.9-.4-1.5.2-1.1.5-1.5.7-.6,1.2-.6.9.2,1.2.6.4.9.4,1.5-.1,1.1-.4,1.5-.7.6-1.2.6h-.1ZM21,28.9c.3,0,.6-.2.8-.5.2-.3.3-.7.3-1.2s-.1-.9-.3-1.2c-.2-.3-.5-.4-.8-.4s-.6.2-.8.5c-.2.3-.3.7-.3,1.2s.1.9.3,1.2.5.5.8.5h0Z"/>
  </g>
  <path class="cls-1" d="M14.2,15.9h1.6v-4.7h-1.6v4.7ZM15,9.5c.2,0,.4,0,.6-.2.2-.2.2-.3.2-.6s0-.4-.2-.6c-.2-.2-.3-.2-.6-.2s-.4,0-.6.2-.2.3-.2.6,0,.4.2.6.3.2.6.2ZM15,19.8c-1.1,0-2.1-.2-3.1-.6s-1.8-.9-2.5-1.7-1.3-1.6-1.7-2.5-.6-2-.6-3.1.2-2.1.6-3.1.9-1.8,1.7-2.5,1.6-1.3,2.5-1.7,2-.6,3.1-.6,2.1.2,3.1.6c.9.4,1.8.9,2.5,1.7s1.3,1.6,1.7,2.5.6,2,.6,3.1-.2,2.1-.6,3.1c-.4.9-.9,1.8-1.7,2.5s-1.6,1.3-2.5,1.7-2,.6-3.1.6ZM15,18.2c1.7,0,3.2-.6,4.5-1.8s1.8-2.7,1.8-4.5-.6-3.2-1.8-4.5-2.7-1.8-4.5-1.8-3.2.6-4.5,1.8-1.8,2.7-1.8,4.5.6,3.2,1.8,4.5,2.7,1.8,4.5,1.8Z"/>
</svg>