<?xml version="1.0" encoding="UTF-8"?>
<svg id="Capa_1" data-name="Capa 1" xmlns="http://www.w3.org/2000/svg" viewBox="0 0 862.4 863">
  <defs>
    <style>
      .cls-1 {
        fill: #1a1e3b;
      }

      .cls-1, .cls-2 {
        stroke-width: 0px;
      }

      .cls-2 {
        fill: #3a1a1a;
      }
    </style>
  </defs>
  <path class="cls-1" d="M862.4,862.4v-9.57c-5.93.04-12.09.02-18.46-.08-6.28,4.93-13.8,8.34-22.01,9.65h40.46Z"/>
  <path class="cls-2" d="M46.4,863h768c2.56,0,5.08-.21,7.54-.6H38.86c2.46.39,4.97.6,7.54.6Z"/>
  <path class="cls-1" d="M824.13,0h-105.21c-.72,54.46-13.29,135.28-13.29,135.28-19.93,186.74-100.98,284.04-100.98,284.04-44.06,55.86-119.99,76.98-119.99,76.98-55.47,12.59-99.53-18.49-99.53-18.49-40.13-28.72-29.51-79.86-29.51-79.86,6.16,96.12,94.55,85.37,94.55,85.37,146.35-12.06,157.1-187,157.1-187,15.08-80.62-34.39-225.63-61.45-296.31H36.67C18.89,3.7,4.63,17.32,0,34.75v196.65c166.76-58.3,334.12-40.91,334.12-40.91,175.46,24.78,187.26,142.02,187.26,142.02,10.62,131.4-91.27,121.96-91.27,121.96-51.93-.79-57.83-51.54-57.83-51.54,27.67,87.86,108.99,28.59,108.99,28.59,47.64-51.79,17.04-103.86,17.04-103.86-46.16-118.55-193.82-89.17-193.82-89.17C198.78,248.73,79.65,370.86,0,468.86v358.39c4.82,18.14,20.07,32.15,38.86,35.15h783.07c8.2-1.31,15.73-4.72,22.01-9.65-146.34-2.23-402.91-44.81-538.62-295.73,0,0-43.19-81.96-22.34-144.51,0,0,18.49-73.5,72.39-97.92,0,0,50.75-17.21,88.52,9.28,0,0-54.55-28.85-99.14,15.21,0,0-50.36,45.11-37.24,118.55,0,0,15.47,53.11,35.67,73.04,0,0,106.58,161.85,519.23,144.67V47c0-23.07-16.49-42.47-38.27-47Z"/>
</svg>