<?xml version="1.0" encoding="UTF-8"?>
<svg id="Capa_4" data-name="Capa 4" xmlns="http://www.w3.org/2000/svg" version="1.1" viewBox="0 0 30 30">
  <defs>
    <style>
      .cls-1 {
        fill: #fff;
        stroke-width: 0px;
      }
    </style>
  </defs>
  <g>
    <path class="cls-1" d="M9.1,28.7v-4h.4l1.6,3.6h-.2l1.6-3.6h.4v4h-.4v-3.4h.2l-1.5,3.4h-.3l-1.5-3.4h.2v3.4h-.4Z"/>
    <path class="cls-1" d="M13.6,28.7l1.8-4h.4l1.8,4h-.5l-.5-1.1h.2c0,.1-2.4.1-2.4.1h.2c0-.1-.5,1-.5,1h-.5ZM15.6,25.3l-.9,2.2h-.1c0-.1,2.1-.1,2.1-.1h-.1c0,.1-.9-2.1-.9-2.1h0Z"/>
    <path class="cls-1" d="M18.2,28.7v-4h1.6c.4,0,.7.1,1,.3.2.2.3.5.3.8s-.1.6-.3.8c-.2.2-.6.3-1,.3h-1.2v1.7h-.5ZM18.6,26.6h1.1c.3,0,.5,0,.7-.2s.2-.3.2-.6,0-.4-.2-.6-.4-.2-.7-.2h-1.1v1.5Z"/>
  </g>
  <path class="cls-1" d="M17.7,20l-5.4-1.9-4.2,1.6c-.3.1-.6,0-.8-.1-.3-.2-.4-.4-.4-.8V6.3c0-.2,0-.4.2-.5s.3-.3.5-.3l4.8-1.6,5.4,1.9,4.2-1.6c.3-.1.6,0,.8.1s.4.4.4.8v12.6c0,.2,0,.4-.2.5s-.3.3-.5.3l-4.8,1.6ZM16.8,17.8V7.3l-3.6-1.3v10.5l3.6,1.3ZM18.6,17.8l2.7-.9V6.3l-2.7,1v10.5ZM8.7,17.6l2.7-1V6l-2.7.9v10.6ZM18.6,7.3v10.5V7.3ZM11.4,6v10.5V6Z"/>
</svg>