<?xml version="1.0" encoding="UTF-8"?>
<svg id="Capa_4" data-name="Capa 4" xmlns="http://www.w3.org/2000/svg" version="1.1" viewBox="0 0 30 30">
  <defs>
    <style>
      .cls-1 {
        fill: #fff;
        stroke-width: 0px;
      }
    </style>
  </defs>
  <g>
    <path class="cls-1" d="M9.1,28.7v-4h.4l1.6,3.6h-.2l1.6-3.6h.4v4h-.4v-3.4h.2l-1.5,3.4h-.3l-1.5-3.4h.2v3.4h-.4Z"/>
    <path class="cls-1" d="M13.6,28.7l1.8-4h.4l1.8,4h-.5l-.5-1.1h.2c0,.1-2.4.1-2.4.1h.2c0-.1-.5,1-.5,1h-.5ZM15.6,25.3l-.9,2.2h-.1c0-.1,2.1-.1,2.1-.1h-.1c0,.1-.9-2.1-.9-2.1h0Z"/>
    <path class="cls-1" d="M18.2,28.7v-4h1.6c.4,0,.7.1,1,.3.2.2.3.5.3.8s-.1.6-.3.8c-.2.2-.6.3-1,.3h-1.2v1.7h-.5ZM18.6,26.6h1.1c.3,0,.5,0,.7-.2s.2-.3.2-.6,0-.4-.2-.6-.4-.2-.7-.2h-1.1v1.5Z"/>
  </g>
  <path class="cls-1" d="M18.2,20l-6.3-2.2-4,1.5c-.2,0-.5,0-.7,0s-.3-.3-.3-.6V6.2c0-.2,0-.3.1-.5s.2-.3.4-.3l4.5-1.5,6.3,2.2,4-1.5c.2,0,.5,0,.7,0s.3.3.3.5v12.6c0,.2,0,.4-.2.5s-.2.2-.4.3l-4.4,1.4ZM17.8,19.1V6.7l-5.6-2v12.4l5.6,2ZM18.5,19.1l3.9-1.3V5.3l-3.9,1.4v12.4ZM7.6,18.6l3.9-1.5V4.7l-3.9,1.3v12.5ZM18.5,6.7v12.4V6.7ZM11.5,4.7v12.4V4.7Z"/>
</svg>